<?xml version="1.0" standalone="no"?>
<!DOCTYPE svg PUBLIC "-//W3C//DTD SVG 20010904//EN"
 "http://www.w3.org/TR/2001/REC-SVG-20010904/DTD/svg10.dtd">
<svg version="1.0" xmlns="http://www.w3.org/2000/svg"
 width="1024.000000pt" height="1024.000000pt" viewBox="0 0 1024.000000 1024.000000"
 preserveAspectRatio="xMidYMid meet">
<metadata>
Created by potrace 1.14, written by Peter Selinger 2001-2017
</metadata>
<g transform="translate(0.000000,1024.000000) scale(0.100000,-0.100000)"
fill="#000000" stroke="none">
<path d="M1845 10233 c-622 -55 -1176 -383 -1513 -896 -152 -232 -247 -472
-304 -767 l-22 -115 -2 -3295 c-3 -3434 -4 -3360 36 -3546 6 -28 13 -64 16
-80 3 -16 25 -89 50 -163 224 -674 779 -1171 1479 -1326 207 -45 70 -44 3570
-41 3060 1 3307 3 3389 19 207 39 390 96 544 169 122 57 313 173 368 223 6 6
29 23 50 39 72 55 258 250 330 346 223 298 357 645 393 1015 12 121 12 6492 0
6615 -35 363 -180 731 -403 1025 -74 98 -234 261 -341 347 -248 200 -585 352
-894 404 -53 8 -107 18 -121 22 -25 7 -6551 12 -6625 5z"/>
</g>
</svg>
